<?xml version="1.0" standalone="no"?>
<!DOCTYPE svg PUBLIC "-//W3C//DTD SVG 1.1//EN" "http://www.w3.org/Graphics/SVG/1.1/DTD/svg11.dtd" >
<svg xmlns="http://www.w3.org/2000/svg" xmlns:xlink="http://www.w3.org/1999/xlink" version="1.1">
<metadata>
Created by FontForge 20190801 at Sun Nov 17 15:50:09 2019
 By de

</metadata>
<defs>
<font id="botanichka" horiz-adv-x="1024" >
  <font-face 
    font-family="botanichka"
    font-weight="400"
    font-stretch="normal"
    units-per-em="1024"
    panose-1="0 0 0 0 0 0 0 0 0 0"
    ascent="960"
    descent="-64"
    bbox="-0.8 -74.75 1408 965.517"
    underline-thickness="0"
    underline-position="0"
    unicode-range="U+0001-FFFD"
  />
<missing-glyph 
 />
    <glyph glyph-name=".notdef" unicode="&#xfffd;" 
 />
    <glyph glyph-name="glyph1" horiz-adv-x="0" 
d="M0 0v0v0v0z" />
    <glyph glyph-name="glyph1" horiz-adv-x="0" 
d="M0 0v0v0v0z" />
    <glyph glyph-name="uni0001" horiz-adv-x="0" 
d="M0 0v0v0v0z" />
    <glyph glyph-name="space" unicode=" " horiz-adv-x="512" 
d="M0 0v0v0v0z" />
    <glyph glyph-name="uniE800" unicode="&#xe800;" horiz-adv-x="950" 
d="M366 128q0 -2 1 -12q1 -9 0 -14t-2 -14q-1 -10 -6 -12q-4 -2 -12 -3h-182q-69 0 -117 48q-48 49 -48 117v402q0 68 48 116t117 48h182q8 0 13 -5q6 -5 6 -13q0 -2 1 -11t0 -16q-1 -6 -2 -13t-6 -11q-4 -4 -12 -3h-182q-38 0 -65 -28q-26 -28 -27 -64v-402q0 -38 27 -64
q28 -27 65 -28h178v0h6q6 0 7 -2t4 -3q4 -1 5 -5t1 -8v0zM896 439q0 -14 -11 -26l-311 -311q-11 -10 -25 -10t-26 10q-11 10 -11 26v164h-256q-14 0 -26 12q-11 11 -11 25v219q0 16 11 26q12 10 26 11h256v165q0 14 11 26q12 11 26 10t25 -10l311 -312q11 -10 11 -25v0z" />
    <glyph glyph-name="uniE801" unicode="&#xe801;" horiz-adv-x="594" 
d="M578 513l-240 -230q-19 -18 -41 -18q-23 0 -41 18l-240 230q-16 16 -16 42q0 25 16 42q39 38 80 0l201 -193l201 193q41 38 80 0q16 -17 16 -42q0 -26 -16 -42v0z" />
    <glyph glyph-name="uniE802" unicode="&#xe802;" horiz-adv-x="349" 
d="M248 721q14 17 40 17q25 0 42 -17q39 -36 0 -81l-191 -201l191 -199q39 -45 0 -82q-17 -16 -41 -16q-25 0 -41 16l-232 242q-16 16 -16 39q0 24 16 41q211 219 232 241v0z" />
    <glyph glyph-name="uniE803" unicode="&#xe803;" horiz-adv-x="348" 
d="M100 721l232 -241q16 -17 16 -41q0 -23 -16 -39l-232 -242q-16 -16 -41 -16q-24 0 -41 16q-36 37 0 82l191 199l-191 201q-36 45 0 81q17 17 42 17q26 0 40 -17v0z" />
    <glyph glyph-name="uniE804" unicode="&#xe804;" horiz-adv-x="594" 
d="M578 367q16 -16 16 -42q0 -25 -16 -42q-39 -39 -80 0l-201 193l-201 -193q-41 -39 -80 0q-16 17 -16 42q0 26 16 42l240 230q16 16 41 16t41 -16z" />
    <glyph glyph-name="uniE805" unicode="&#xe805;" 
d="M0 439q6 50 66 112q80 82 180 133q132 61 266 61q140 -2 266 -61q106 -55 180 -133q66 -74 66 -112q-6 -50 -66 -112q-80 -82 -180 -132q-132 -62 -266 -62q-140 2 -266 62q-106 54 -180 132q-66 74 -66 112v0zM270 439q0 -96 71 -163t171 -67t171 67t71 163t-71 163
q-71 66 -171 67t-171 -67q-71 -69 -71 -163v0zM358 440q0 61 45 104q46 43 109 43t109 -43q45 -43 45 -104q0 -62 -45 -105q-46 -43 -109 -44t-109 44q-45 45 -45 105v0z" />
    <glyph glyph-name="uniE806" unicode="&#xe806;" 
d="M962 489l-424 -423q-11 -11 -26 -11t-26 11l-424 423q-11 11 -11 27q0 15 11 25l95 94q11 12 26 12q16 0 26 -12l303 -303l303 303q11 12 26 12q14 0 26 -12l95 -94q11 -11 11 -25q0 -15 -11 -27v0z" />
    <glyph glyph-name="uniE807" unicode="&#xe807;" horiz-adv-x="731" 
d="M669 779l-303 -303l303 -304q11 -11 11 -26t-11 -26l-95 -95q-11 -10 -25 -10t-26 10l-424 425q-11 10 -11 26q0 15 11 25l424 424q11 10 26 10t25 -10l95 -95q11 -10 11 -26q0 -15 -11 -25v0z" />
    <glyph glyph-name="uniE808" unicode="&#xe808;" horiz-adv-x="731" 
d="M633 450l-424 -425q-11 -10 -26 -10q-14 0 -26 10l-95 95q-11 12 -11 26t11 26l304 304l-304 303q-11 11 -11 25q0 15 11 26l95 95q11 10 26 10q16 0 26 -10l424 -424q10 -11 10 -25q0 -15 -10 -26v0z" />
    <glyph glyph-name="uniE809" unicode="&#xe809;" 
d="M962 190l-95 -94q-11 -10 -26 -10q-16 0 -26 10l-303 304l-303 -304q-11 -10 -26 -10q-14 0 -26 10l-95 94q-11 11 -11 27q0 15 11 25l424 424q12 10 26 10t26 -10l424 -424q11 -11 11 -25q0 -15 -11 -27v0z" />
    <glyph glyph-name="uniE80A" unicode="&#xe80a;" horiz-adv-x="913" 
d="M11 464q-23 90 0 178q24 88 89 153q50 49 113 76t131 26q67 0 130 -26q64 -26 113 -76q53 -53 79 -122q25 -68 21 -140t-37 -135q29 -8 50 -30l179 -177q35 -37 35 -87t-35 -87q-36 -36 -87 -36q-52 0 -87 36l-178 178q-22 21 -30 50q-72 -36 -153 -36q-68 0 -131 26
t-113 75q-65 65 -89 154v0zM115 553q0 -96 66 -162q68 -67 163 -67q94 0 161 67q66 66 67 162q1 95 -67 161q-68 68 -161 68q-94 0 -163 -68q-66 -66 -66 -161v0z" />
    <glyph glyph-name="uniE80B" unicode="&#xe80b;" horiz-adv-x="1000" 
d="M0 -41q0 9 1 23t11 45q11 31 27 49q17 18 66 38q50 21 111 43q62 23 92 37q37 19 57 55q19 37 20 75q0 28 -32 64q-18 21 -31 60q-46 19 -46 74q0 42 16 60q-4 28 -9 82q-1 8 -2 22q-1 13 2 45q3 31 15 54q19 34 48 46t48 5h1q1 5 4 13q3 9 15 23q11 14 25 20q8 5 26 7
q17 2 44 1t53 -9q27 -7 55 -21q29 -14 51 -39q21 -25 35 -60q15 -36 16 -86v-21q-4 -46 -9 -82q14 -18 14 -60q0 -55 -45 -74q-13 -39 -32 -60q-32 -36 -32 -64q0 -39 21 -75q20 -35 56 -55q30 -15 92 -37q63 -21 112 -43q49 -21 66 -38q18 -17 27 -46q9 -28 10 -51l1 -20
h-1000v0z" />
    <glyph glyph-name="uniE80C" unicode="&#xe80c;" 
d="M819 951q11 0 22 -9t22 -21q22 -21 16.5 -48.5t-16.5 -38.5l-468 -395l454 -395q21 -22 21 -44t-21 -43q-12 -23 -32 -30t-42 14l-512 439q-21 11 -25 24t-4 35q0 11 9 22t20 22l512 454q11 10 22 12t22 2v0z" />
    <glyph glyph-name="uniE80D" unicode="&#xe80d;" 
d="M205 -73q-11 0 -22 9t-22 21q-22 10 -14.5 37.5t28.5 49.5l454 409l-454 381q-21 22 -28.5 49t14.5 38q22 22 44 22t44 -22l512 -438q11 -11 20 -22t9 -22t-9 -22t-20 -22l-512 -454q-11 -11 -22 -12.5t-22 -1.5v0z" />
    <glyph glyph-name="uniE80F" unicode="&#xe80f;" horiz-adv-x="950" 
d="M951 581q0 -12 -15 -27l-208 -202l49 -286q1 -4 1 -12q0 -11 -6 -20q-6 -8 -17 -9q-11 0 -23 7l-257 135l-256 -135q-13 -7 -23 -7q-12 0 -18 9q-6 10 -6 20q0 4 1 12l49 286l-208 202q-14 15 -14 27q0 22 32 27l286 41l129 260q12 23 28 23q17 0 29 -23l128 -260
l287 -41q32 -5 32 -27v0z" />
    <glyph glyph-name="uniE810" unicode="&#xe810;" 
d="M951 92v438q-18 -20 -40 -38q-152 -117 -243 -192q-29 -25 -47 -39q-19 -15 -50 -28q-30 -13 -58 -13h-2q-27 0 -58 13q-32 13 -50 28q-17 14 -47 39q-90 75 -243 192q-22 18 -40 38v-438q0 -8 6 -14q6 -5 12 -5h842q7 0 12 5q5 6 6 14v0zM951 692v14v0l-1 7l-1 7l-3 6
q-3 5 -5 4t-8 2h-842q-7 0 -12 -6q-5 -7 -6 -13q0 -96 84 -163q110 -87 229 -181q4 -2 21 -16q16 -14 25 -22q9 -7 26 -18q16 -11 28 -15q13 -5 25 -6h2q11 0 25 6q13 5 28 15q16 10 26 18q10 9 25 22q16 13 21 16q119 94 229 181q31 25 58 67q26 42 26 75v0zM1024 713v-621
q0 -38 -27 -65q-26 -26 -64 -27h-842q-37 0 -64 27q-28 28 -27 65v621q0 38 27 65q26 26 64 26h842q38 0 64 -26q27 -27 27 -65v0z" />
    <glyph glyph-name="uniE811" unicode="&#xe811;" 
d="M414 476q57 0 87 -41q29 -41 31 -82v-41q0 -57 -20 -98t-51 -60q-31 -18 -61 -27q-29 -10 -50 -12h-350v662h330q80 0 130 -45t50 -131q0 -52 -24 -83q-23 -32 -48 -38zM145 660v-147h174q27 0 41 15q15 15 15 62q0 31 -11 49q-12 17 -24 19l-10 2h-185v0zM322 234
q75 0 75 86q0 41 -16 64q-16 22 -33 24l-18 2h-185v-176h177v0zM801 609q71 0 121 -30q49 -30 68 -72q20 -42 28 -84q8 -41 6 -70l-2 -31h-328q0 -55 28 -84t56 -29l27 -2q47 0 73 18q25 17 27 34l2 18h111q0 -84 -54 -127q-55 -43 -108 -45l-55 -2q-74 0 -125 26
q-51 25 -74 63q-22 38 -34 75q-11 37 -11 61v27q0 10 1 28q1 17 14 61q14 44 37 77q24 33 74 60q50 28 118 28v0zM901 410q0 4 -1 11q-1 8 -6 25t-13 31q-9 13 -29 24q-21 12 -47 12q-43 0 -72 -26q-28 -26 -35 -52l-6 -25h209v0zM928 738v-80h-262v80h262v0z" />
    <glyph glyph-name="uniE812" unicode="&#xe812;" horiz-adv-x="1015" 
d="M563 951l-307 -1q-49 -7 -93.5 -25.5t-78.5 -48.5t-55 -70.5t-25 -92.5q-2 -10 -2 -19v-19q-1 -45 -1 -92.5v-93.5q1 -74 -0.5 -134.5t0.5 -115.5q0 -80 23.5 -139t69 -97.5t111.5 -56.5t152 -16q43 1 92 0.5t105 -1.5q55 0 99.5 -1.5t81.5 3.5q85 12 138 44t83.5 75
t42.5 92t16 95v140q-5 108 -69 145.5t-130 40.5q7 27 8.5 63.5t-5.5 85.5q-4 48 -22.5 89.5t-51 73t-78 51.5t-104.5 25v0zM306 759h251q104 -13 101.5 -93t-101.5 -96h-251q-104 14 -101.5 93.5t101.5 95.5v0zM249 346l461 -2q52 -7 78 -37.5t26.5 -66t-24.5 -66.5t-75 -38
l-461 2q-53 6 -79.5 36.5t-27 66t25 66.5t76.5 39v0z" />
    <glyph glyph-name="uniE813" unicode="&#xe813;" horiz-adv-x="1033" 
d="M0 -73v513h513v-513h-513v0zM521 438v513h512v-513h-512v0z" />
    <glyph glyph-name="uniE814" unicode="&#xe814;" horiz-adv-x="1017" 
d="M369 651l5 -348h-211q17 75 61 130.5t147 70.5l-2 45q-113 -14 -184 -49.5t-111.5 -81.5t-56 -96.5t-17.5 -94.5l484 1v290q55 1 114 -2.5t111.5 -24t93 -64t59.5 -122.5l-215 2v147q-29 9 -55 10t-53 -1l-2 -235h480q2 88 -35 152.5t-106.5 106t-168.5 61t-223 17.5v86
h-115v0z" />
    <glyph glyph-name="uniE815" unicode="&#xe815;" horiz-adv-x="1149" 
d="M0 236v381q0 13 13 13h181v132q0 15 13 15h100v-527q0 -14 -12 -14h-295v0zM112 321h68q14 0 14 14v211h-69q-13 0 -13 -14v-211v0zM342 236v381q0 13 13 13h101v-380q0 -14 -13 -14h-101v0zM342 692v70q0 15 12 15h102v-71q0 -14 -13 -14h-101v0zM495 236v381
q0 13 13 13h295v-516q0 -13 -13 -13h-295l1 71q0 14 12 14h180v50h-193v0zM607 321h69q12 0 12 14v211h-68q-13 0 -13 -14v-211v0zM842 172q0 14 13 14h180v50h-193v381q0 13 13 13h294v-516q0 -13 -12 -13h-295v71v0zM953 321h69q13 0 13 14v211h-68q-14 0 -14 -14v-211v0z
" />
    <glyph glyph-name="uniE816" unicode="&#xe816;" 
d="M0 439q0 139 69 257q68 118 186 186q118 69 257 69t257 -69q118 -68 186 -186q69 -118 69 -257t-69 -257q-68 -118 -186 -187q-118 -68 -257 -68t-257 68q-118 69 -186 187q-69 118 -69 257v0zM85 439q0 -160 108 -282q49 97 155 184q107 87 208 109q-15 36 -30 65
q-176 -57 -381 -57q-40 0 -59 1v-10t-1 -10v0zM98 544q23 -2 67 -2q171 0 324 46q-77 139 -171 231q-80 -41 -138 -114q-57 -73 -82 -161v0zM251 102q116 -90 261 -90q76 0 151 29q-21 175 -80 338q-95 -20 -190 -103t-142 -174v0zM408 852q90 -94 166 -233q140 58 210 149
q-118 98 -272 98q-52 0 -104 -14v0zM611 546q16 -32 35 -83q76 8 165 8q63 0 126 -3q-8 139 -100 247q-67 -99 -226 -169v0zM672 392q52 -152 70 -312q81 53 132 135q52 82 62 177q-75 5 -136 5q-57 0 -128 -5v0z" />
    <glyph glyph-name="uniE817" unicode="&#xe817;" horiz-adv-x="857" 
d="M0 634q0 41 15 60q10 14 27 21q18 10 48 10h96q16 0 27 11t11 26q0 22 -1 45v61q0 26 13 45q15 21 51 32q11 6 54 6h19q61 -2 101 -18q39 -16 46 -63q27 1 49 1q54 0 91 -5q99 -12 132 -25q43 -13 55 -68q10 -57 18 -215q5 -91 5 -151q0 -45 -3 -73q-16 -176 -44 -260
q-14 -43 -29 -70q-14 -28 -27 -43q-14 -16 -38 -24q-25 -8 -43 -9q-19 -1 -61 -1q-110 0 -148 25q-38 26 -39 110q0 46 10 74q10 27 34 38q24 10 47 13q15 1 41 1h29q4 0 6 -1t0 -5t-2 -8t-3 -12q-3 -7 -2 -13q0 -9 2 -18q2 -10 1 -13t-7 -3h-21v0h-10q-10 0 -10 -2t-9 -2
q-8 0 -8 -4t-6 -6t-4 -9t-1 -13q0 -14 4 -23t8 -14q4 -6 19 -8q14 -2 22 -2h33q58 0 75 14q16 13 16 65q0 78 -18 106q-19 27 -59 31q-90 10 -122 21q-54 20 -54 122q0 2 -2 2t-3 -2q0 -69 -18 -123l-9 -25q-11 -25 -37 -26h-7q-24 0 -55 8q-130 16 -203 48q-24 11 -37 41
q-18 36 -36 132q-19 96 -25 136q-4 34 -4 52v0zM6 756v2l188 185q0 1 1 1l-4 -6q-11 -21 -11 -50q0 -22 1 -105q0 -10 -10 -10h-95q-35 0 -61 -12q-5 -3 -9 -5v0zM588 459q21 3 47 3q46 -1 83 -18q0 87 -63 89h-3q-30 0 -45 -20q-15 -22 -19 -54v0z" />
    <glyph glyph-name="uniE818" unicode="&#xe818;" horiz-adv-x="512" 
d="M512 740h-145q-15 0 -26 -15q-11 -16 -11 -38v-105h182v-151h-182v-453h-174v453h-156v151h156v88q0 97 60 163q60 67 151 67h145v-160v0z" />
    <glyph glyph-name="uniE819" unicode="&#xe819;" horiz-adv-x="922" 
d="M201 234q-82 0 -142 60q-59 61 -59 145q0 86 58 145q59 60 143 60t142 -60q58 -59 58 -145q0 -84 -59 -145q-59 -60 -141 -60v0zM721 234q-82 0 -141 60q-60 61 -60 145q0 86 59 145q58 60 142 60t142 -60q59 -59 59 -145q0 -84 -60 -145q-59 -60 -141 -60v0z" />
    <glyph glyph-name="uniE81A" unicode="&#xe81a;" horiz-adv-x="854" 
d="M0 -73l427 1024l427 -1024h-378v138l174 87l-13 56l-161 -80v68l101 53l-15 59l-86 -46v89h-94v-161l-88 60l-16 -65l104 -72v-186h-382v0z" />
    <glyph glyph-name="uniE81B" unicode="&#xe81b;" horiz-adv-x="1318" 
d="M1157 410h145v101h-145v142h-103v-142h-144v-101h144v-142h103v142v0zM415 32q95 0 168.5 32t124.5 87.5t77.5 129.5t26.5 158q0 21 -2.5 41t-6.5 40h-388v-163h222q-21 -76 -82 -117.5t-140 -41.5q-51 0 -95.5 19t-77.5 51.5t-52 76.5t-19 94t19 93.5t52 76.5t77.5 52
t95.5 19q46 0 85 -14.5t72 -42.5l119 118q-55 50 -125 77t-151 27q-86 0 -161.5 -31.5t-132 -87t-89 -129.5t-32.5 -158t32.5 -158t89 -129.5t132 -87.5t161.5 -32v0z" />
    <glyph glyph-name="uniE81C" unicode="&#xe81c;" horiz-adv-x="804" 
d="M646 610l9 100h-505l26 -305h350l-12 -131l-113 -30l-112 30l-7 80h-101l14 -159l206 -56h2l205 56l29 311h-368l-9 104h386v0zM0 878h805l-74 -822l-330 -92l-328 92z" />
    <glyph glyph-name="uniE81D" unicode="&#xe81d;" horiz-adv-x="878" 
d="M778 136v370h-77q12 -35 12 -74q0 -73 -37 -133q-37 -61 -99 -97q-63 -36 -138 -36q-112 0 -192 78t-80 188q0 39 11 74h-81v-370q0 -15 11 -25q10 -10 25 -10h610q15 0 25 10t10 25v0zM616 441q0 71 -52 121t-125 50q-72 0 -124 -50q-51 -50 -52 -121t52 -121
q54 -50 124 -50q74 0 125 50t52 121v0zM778 647v94q0 15 -11 28q-11 12 -28 11h-100q-16 0 -28 -11q-11 -12 -11 -28v-94q0 -18 11 -29q12 -11 28 -11h100q17 0 28 11t11 29v0zM878 766v-654q0 -46 -33 -79q-33 -32 -80 -33h-652q-46 0 -80 33q-34 34 -33 79v654q0 46 33 78
q33 33 80 34h652q46 0 80 -34q34 -33 33 -78v0z" />
    <glyph glyph-name="uniE81E" unicode="&#xe81e;" horiz-adv-x="1361" 
d="M0 439q0 168 119 287q119 118 287 118q126 0 225 -64q98 -65 149 -185q16 -37 132 -308q22 -49 39 -74q18 -26 50 -47q33 -20 81 -22h8q68 0 113 37q47 39 48 98q0 28 -8 46q-8 19 -30 33q-21 14 -42 22q-20 9 -60 21q-128 42 -184 92q-57 50 -57 138q0 94 60 150
q59 56 160 55q130 0 195 -118l-86 -44q-46 64 -115 64q-47 0 -77 -29q-31 -28 -32 -75q0 -13 2 -24t9 -22q7 -10 12 -16q6 -6 18 -14q12 -9 20 -13t26 -10q17 -6 28 -10q10 -4 31 -10q22 -7 34 -11q111 -36 159 -86q48 -49 47 -143q0 -102 -78 -170q-77 -67 -190 -67h-3
q-103 0 -165 49q-63 48 -106 143l-14 34l-130 295q-34 79 -107 127q-72 48 -162 48q-122 0 -208 -86t-87 -209t87 -208t208 -87q83 0 153 44t108 115l52 -121q-56 -70 -138 -110t-175 -39q-168 0 -287 119t-119 287v0z" />
    <glyph glyph-name="uniE81F" unicode="&#xe81f;" horiz-adv-x="1061" 
d="M0 828q0 51 36 85t93 33q56 0 91 -33q36 -34 36 -88q0 -49 -35 -82q-36 -34 -94 -34h-1q-56 0 -91 34t-35 85v0zM13 -68v684h228v-684h-228v0zM367 -68h227v382q0 36 8 55q14 35 44 60q30 24 73 23q115 0 115 -154v-366h227v392q0 152 -72 231q-71 78 -189 77
q-132 0 -206 -113v-2h-1l1 2v97h-227q2 -33 2 -204t-2 -480v0z" />
    <glyph glyph-name="uniE820" unicode="&#xe820;" horiz-adv-x="907" 
d="M594 394l264 -274h-808l265 271l139 -130zM65 757h778l-389 -370zM644 441l263 248v-520zM0 169v520l265 -249z" />
    <glyph glyph-name="uniE821" unicode="&#xe821;" horiz-adv-x="1112" 
d="M0 260v358h143v-212h825v212h144v-358h-1112v0z" />
    <glyph glyph-name="uniE822" unicode="&#xe822;" horiz-adv-x="952" 
d="M0 557q4 176 134 284q138 108 342 110q214 -4 344 -108q64 -54 98 -130q33 -75 34 -156q-4 -168 -128 -270q-130 -102 -338 -104v-62q-2 -58 -34 -106q-33 -48 -82 -72q-34 -16 -74 -16q-48 0 -96 24v178q42 -30 79 -20q33 14 33 50v492h174v-306q60 0 114 12
q82 20 128 60q60 58 60 140q0 118 -98 180q-90 52 -214 52q-130 -4 -216 -56q-46 -30 -71 -77q-24 -47 -25 -99q8 -108 48 -146l-110 -118q-48 48 -76 124q-24 80 -26 140v0z" />
    <glyph glyph-name="uniE823" unicode="&#xe823;" horiz-adv-x="880" 
d="M790 705l8 -4q39 -23 61 -63q21 -39 21 -99q0 -133 -113 -215q-109 -82 -313 -82h-31q-16 0 -33 -12q-16 -12 -20 -29l-37 -159q-12 -43 -53 -43h-109q-18 0 -29 13q-10 13 -6 30l6 24h70q16 0 33 13q16 14 20 30l37 160q10 41 53 41h31q201 0 313 82q113 84 113 215
q0 57 -22 98v0zM196 177q-2 -17 -19 -30q-16 -13 -33 -13h-110q-19 0 -28 13t-5 30l154 661q10 41 53 41h229q80 0 129 -8q58 -12 97 -35q36 -24 59 -63q20 -39 20 -99q0 -133 -112 -215q-109 -82 -312 -82h-32q-17 0 -33 -12t-19 -29zM286 560q-4 -17 6 -29t26 -12h29
q88 0 137 37q50 34 50 100q0 45 -31 65q-33 21 -96 21h-35q-43 0 -54 -41z" />
    <glyph glyph-name="uniE824" unicode="&#xe824;" horiz-adv-x="942" 
d="M256 859q10 -13 162 -148l-406 -370q-12 49 -12 98q0 133 69 246q68 112 187 174v0zM666 869v-285l-336 303q65 23 141 23q100 0 195 -41v0zM737 828q97 -66 151 -169t54 -220q0 -82 -27 -156h-178v545v0zM35 265q12 12 67 61l105 94v-370q-119 82 -172 215v0zM279 9v203
h604q-58 -103 -155 -167q-97 -65 -214 -77h-86q-86 10 -149 41v0z" />
    <glyph glyph-name="uniE825" unicode="&#xe825;" horiz-adv-x="797" 
d="M328 275q-27 -133 -60 -216q-32 -83 -98 -132q-6 76 -7 123t11 112q12 66 23 107q10 41 26 101q17 61 25 102q-25 53 -20 118q5 66 50 109q44 43 101 20q41 -16 45 -60t-13 -97q-18 -54 -33 -106q-16 -52 -4 -92q11 -40 64 -50q70 -14 124 39t76 134q21 81 11 167
t-55 131q-64 66 -155 72t-167 -34q-75 -40 -122 -120q-48 -80 -33 -174q4 -23 22 -53q19 -31 22 -48q3 -18 -18 -69q-149 35 -143 236q4 141 108 239q103 98 238 115q168 18 297 -59q129 -76 148 -224q26 -180 -68 -324q-94 -145 -258 -133q-23 3 -43 10q-21 7 -31 13
t-32 22q-21 15 -31 21v0z" />
    <glyph glyph-name="uniE826" unicode="&#xe826;" horiz-adv-x="680" 
d="M0 935h102l9 -123h10l5 3q81 136 252 136q133 0 218 -100q85 -101 84 -261q0 -95 -28 -170q-27 -74 -73 -120q-47 -46 -104 -69t-120 -24q-70 0 -128 30q-57 30 -89 81l-2 3h-11l-3 -7v-387h-116v779q0 90 -6 229v0zM122 513q0 -32 6 -57q19 -71 76 -115q56 -44 129 -44
q103 0 166 78q62 79 62 209q0 122 -62 199q-63 77 -161 77q-74 0 -131 -46t-76 -121q-9 -34 -9 -54v-126v0z" />
    <glyph glyph-name="uniE827" unicode="&#xe827;" horiz-adv-x="1234" 
d="M0 442q0 63 51 108q51 46 115 46q63 0 107 -37h6q137 84 343 84l5 4l71 273l248 -37q0 -1 2 -1q1 0 0 1q2 1 13 17q10 15 14 18q35 33 84 33q50 0 85 -33t34 -84t-34 -86t-85 -36q-59 0 -89 40q-31 40 -31 99q-2 -2 -99 13q-98 14 -113 17h-3q-2 -2 -16 -54
q-15 -52 -31 -112q-17 -59 -19 -65v-3l6 -4q73 0 151 -21q78 -20 133 -59l3 -2q1 1 2 1t2 1q26 18 37 25q12 8 30 14t44 6q70 0 119 -49t49 -120q0 -48 -27 -88q-26 -40 -71 -62q0 -199 -267 -310q-42 -18 -57 -23q-33 -11 -93 -20q-61 -9 -95 -9q-123 0 -237 36
q-2 2 -74 39q-97 52 -155 118q-59 67 -60 160h-5q-34 18 -60 51l-9 13q-16 27 -20 47q-4 19 -4 51v0zM35 430q0 -68 58 -115q5 60 49 119q44 58 104 103q-38 27 -84 27q-50 0 -88 -41t-39 -93v0zM139 280q0 -55 32 -106q32 -52 82 -87q50 -36 104 -62q55 -25 108 -35
q77 -14 149 -14q126 0 239 40t189 126h-3q31 39 44 71q14 31 14 73q0 56 -27 106t-72 86t-94 62q-49 27 -102 39q-87 24 -186 24q-75 0 -154 -19q-79 -18 -154 -55t-122 -101q-47 -65 -47 -148v0zM330 355q0 38 23 61q24 24 61 23t63 -23q27 -21 26 -61q0 -37 -26 -62
q-25 -24 -63 -24t-61 24q-22 25 -23 62v0zM367 187h45q25 -46 82 -70q56 -23 113 -24q60 0 113 24q53 25 86 70h42q-26 -64 -95 -98q-70 -35 -146 -35q-73 0 -144 36t-96 97v0zM711 355q0 39 23 61q24 23 63 23q34 0 59 -25q25 -24 25 -59t-25 -61q-25 -25 -59 -25
q-38 0 -62 24q-23 25 -24 62v0zM972 834q0 -36 25 -61q26 -26 62 -26q37 0 60 26q24 25 24 61q0 35 -25 60q-24 24 -59 24t-61 -24q-25 -25 -26 -60v0zM986 546q56 -36 97 -94q41 -57 58 -123q60 44 60 99q0 59 -36 102t-95 43q-46 0 -84 -27v0z" />
    <glyph glyph-name="uniE828" unicode="&#xe828;" horiz-adv-x="804" 
d="M219 183q0 -46 -32 -78q-31 -32 -77 -32q-47 0 -78 32q-32 32 -32 78t32 78q31 31 78 31q46 0 77 -31q32 -32 32 -78v0zM512 112q1 -15 -9 -26q-11 -13 -28 -13h-77q-14 0 -24 10q-10 9 -12 23q-12 131 -105 224t-224 106q-15 1 -24 11t-9 25v76q0 17 12 27q10 10 25 10
h3q91 -7 174 -46t148 -103q65 -65 104 -149t46 -175v0zM805 111q1 -15 -10 -26q-11 -12 -27 -12h-82q-14 0 -26 11q-11 10 -11 23q-6 123 -57 234q-51 110 -132 192t-193 132q-111 50 -232 59q-15 0 -25 11t-10 24v82q0 16 11 27q11 10 26 10h1q150 -8 287 -68
q136 -61 243 -168t168 -244q62 -137 69 -287v0z" />
    <glyph glyph-name="uniE829" unicode="&#xe829;" horiz-adv-x="819" 
d="M666 285q63 0 108 -44t45 -109q0 -64 -45 -109t-108 -45q-64 0 -109 45t-45 109q0 6 1 14t1 12l-266 160q-43 -33 -94 -33q-64 0 -109 45t-45 109q0 63 45 108t109 45q55 0 94 -30l266 159q0 5 -1 13t-1 12q0 64 45 109t109 45q63 0 108 -44t45 -110q0 -63 -45 -108
q-45 -46 -108 -46q-54 0 -93 33l-268 -160q2 -8 2 -26q0 -17 -2 -25l268 -159q37 30 93 30v0z" />
    <glyph glyph-name="uniE82A" unicode="&#xe82a;" horiz-adv-x="1010" 
d="M0 671q0 116 82 198t198 82q79 0 148 -43q37 7 82 7q200 0 341 -141q141 -142 141 -340q0 -50 -11 -104q29 -60 29 -124q0 -115 -82 -197t-198 -82q-70 0 -132 33q-46 -9 -88 -9q-199 0 -340 142q-141 141 -141 341q0 48 9 96q-38 67 -38 141v0zM226 297q0 -42 31 -88
q73 -106 252 -106q51 0 99 11q48 12 89 35q41 24 68 66t26 96q0 59 -30 100t-76 60q-46 18 -97 33q-51 16 -99 24q-47 8 -74 27q-28 18 -31 45q0 33 38 50q38 16 76 16q41 0 67 -12q27 -12 39 -31q12 -18 22 -36q9 -17 25 -30q17 -14 40 -14q28 0 49 20q22 19 21 47t-16 55
q-30 56 -97 82q-66 26 -141 26q-47 0 -91 -10q-44 -9 -85 -29q-41 -21 -66 -58q-24 -36 -25 -89q0 -67 41 -108t99 -59q58 -17 118 -29q59 -13 99 -34q40 -22 41 -60q0 -30 -24 -51q-23 -20 -51 -27q-27 -7 -58 -7q-39 0 -66 11q-26 11 -40 27q-13 17 -22 36q-9 20 -19 36
q-9 17 -23 28t-38 10q-29 0 -49 -17q-21 -18 -22 -46v0z" />
    <glyph glyph-name="uniE82B" unicode="&#xe82b;" horiz-adv-x="1073" 
d="M0 248q0 -20 14 -30q15 -11 31 -7q16 3 23 11q6 8 6 26v145q0 15 -12 26q-11 12 -25 11q-15 0 -26 -11q-10 -10 -11 -26v-145v0zM115 186q0 -14 10 -22q10 -7 27 -7q16 0 26 7q10 8 10 22v338q0 15 -10 25q-10 11 -26 12q-16 0 -26 -12q-10 -11 -11 -25v-338v0zM229 171
q0 -15 11 -23q10 -8 27 -7q16 0 26 7t10 23v308q0 15 -10 26q-10 12 -26 11q-15 0 -26 -11q-12 -10 -12 -26v-308v0zM344 169q0 -28 37 -28t38 28v499q0 42 -26 48q-16 4 -33 -10q-16 -14 -16 -38v-499v0zM461 154v544q0 26 16 31q33 8 67 8q76 0 142 -36q67 -36 107 -98
q40 -63 47 -138q30 14 64 14q71 0 120 -50q49 -51 50 -119q0 -70 -50 -119t-119 -50l-435 1q-4 1 -6 5t-3 7v0z" />
    <glyph glyph-name="uniE82C" unicode="&#xe82c;" 
d="M0 439q0 139 69 257q68 118 186 186q118 69 257 69t257 -69q118 -68 186 -186q69 -118 69 -257q0 -104 -39 -197t-109 -164q-62 75 -149 117t-187 42q-110 0 -204 -50t-155 -138q-85 72 -133 174q-48 101 -48 216v0zM168 586q0 -17 12 -29q13 -13 31 -14q6 0 9 1
q148 60 305 60q158 0 305 -60h5q3 0 5 -1q17 0 30 14q14 13 13 29q0 26 -24 38q-163 65 -334 65q-174 0 -337 -66q-20 -13 -20 -37v0zM215 434l6 -17q8 -13 24 -13q3 0 9 2q130 56 271 56q143 0 274 -57q4 -2 7 -2q15 0 23 13l6 18q0 13 -11 21q-141 64 -299 64
q-156 0 -300 -64q-10 -10 -10 -21v0zM264 286q10 -25 32 -16q111 52 229 52q115 0 225 -49q24 -13 35 12q6 14 0 24q-5 10 -14 15q-108 54 -246 54q-131 0 -250 -56q-19 -10 -11 -36v0zM327 -38q38 49 94 77q56 29 119 29q116 0 197 -88q-106 -53 -225 -53q-96 0 -185 35v0z
" />
    <glyph glyph-name="uniE82D" unicode="&#xe82d;" horiz-adv-x="803" 
d="M0 -73v427l78 -1l-3 -343h513v342h81v-425h-669v0zM126 151h401v-85h-401v85v0zM127 218l8 87l403 -39l-9 -87zM148 395l24 84l389 -110l-24 -84zM221 601l45 74l346 -208l-46 -75zM392 811l71 51l235 -329l-71 -51zM650 937l86 14l67 -398l-86 -15z" />
    <glyph glyph-name="uniE82E" unicode="&#xe82e;" horiz-adv-x="1343" 
d="M0 562q0 56 40 96t95 40q48 0 86 -30q38 -29 47 -77l514 -206q33 19 70 19h7t7 -1l113 163q1 75 54 128t128 52q76 0 129 -53t53 -129t-53 -129t-129 -53l-174 -127q-5 -53 -44 -88q-39 -34 -91 -35q-49 0 -86 30q-37 31 -47 77l-514 206q-33 -19 -70 -19q-56 0 -95 39
q-39 40 -40 97v0zM36 562q0 -41 30 -70q29 -29 69 -30q9 0 22 2l-42 17v1q-29 13 -41 43q-6 14 -6 29t6 30q12 31 41 43q15 7 31 6q14 0 28 -5v1l50 -20q-29 53 -89 53q-41 0 -69 -29q-29 -28 -30 -71v0zM763 221q30 -54 89 -54q41 0 71 30q29 30 29 71t-28 71
q-29 29 -72 28q-14 0 -22 -2l41 -16q31 -13 44 -43q8 -16 8 -31q0 -14 -7 -30q-12 -31 -43 -44q-15 -6 -30 -6t-30 6q-8 3 -25 11q-16 7 -25 9v0zM1039 564q0 -50 36 -86t86 -36q51 0 87 36t36 86t-36 86t-87 36q-50 0 -86 -36t-36 -86v0zM1065 565q0 -41 29 -70
q28 -28 68 -28t69 28q29 29 29 70q0 40 -29 68q-29 29 -69 29q-41 0 -68 -29q-28 -28 -29 -68v0z" />
    <glyph glyph-name="uniE82F" unicode="&#xe82f;" horiz-adv-x="1340" 
d="M0 227v185h229v-183q0 -29 21 -49q20 -21 50 -22t51 21q22 21 21 50v433q0 120 89 205t210 84t211 -85t88 -206v-94l-137 -41l-92 43v82q0 29 -20 50q-21 20 -50 20q-30 0 -50 -20q-21 -21 -22 -50v-427q0 -123 -88 -210t-211 -86q-124 0 -212 87t-88 213v0zM741 224v187
l92 -43l137 41v-188q0 -30 20 -50q21 -21 50 -22q30 -1 51 22q20 22 20 50v191h229v-185q0 -124 -87 -212t-212 -88t-212 87t-88 210v0z" />
    <glyph glyph-name="uniE830" unicode="&#xe830;" horiz-adv-x="631" 
d="M0 531v145q61 21 103 57q42 34 69 88q27 52 36 130h146v-259h243v-161h-243v-262q0 -88 10 -115q9 -24 34 -40q35 -20 78 -20q79 0 155 50v-161q-65 -32 -119 -44q-53 -12 -115 -12q-69 0 -125 17q-56 20 -91 51q-37 32 -53 70q-14 35 -14 108v358h-114v0z" />
    <glyph glyph-name="uniE831" unicode="&#xe831;" horiz-adv-x="1260" 
d="M0 43q31 -4 61 -4q181 0 322 111q-84 1 -151 51q-66 50 -91 128q21 -4 48 -4q36 0 69 9q-90 18 -148 89q-59 72 -60 164v3q54 -30 118 -31q-53 34 -84 92q-31 57 -32 123q0 69 36 130q96 -120 236 -191q139 -70 297 -80q-8 34 -8 60q0 106 76 182t183 76q112 0 189 -82
q89 18 164 63q-29 -93 -113 -143q75 9 148 41q-50 -77 -128 -134v-34q0 -103 -30 -207q-30 -103 -92 -198q-63 -96 -149 -169q-86 -74 -206 -118q-119 -44 -259 -43q-214 0 -396 116v0z" />
    <glyph glyph-name="uniE832" unicode="&#xe832;" horiz-adv-x="1174" 
d="M0 672q56 67 113 119q56 52 98 80t74 44q31 16 49 22l17 4q13 2 25 2q19 0 36 -6q26 -11 44 -35q17 -25 29 -57q13 -31 22 -73t15 -80t15 -81q8 -43 14 -73q33 -128 53 -181q21 -53 42 -54q25 0 69 57t95 155q27 49 27 93q0 13 -2 23q-10 54 -53 67q-11 4 -24 4
q-36 0 -85 -27q22 134 137 214q87 62 178 62q12 0 25 -1q104 -8 142 -92q19 -39 19 -90q0 -30 -7 -63q-18 -104 -70 -213q-53 -108 -116 -191t-136 -159t-126 -121t-93 -70q-43 -24 -80 -24t-72 21q-35 22 -57 50q-23 27 -39 58q-19 39 -99 306q-81 267 -100 287q-1 2 -4 4
t-13 5t-25 0q-14 -3 -38 -14q-23 -12 -51 -34z" />
    <glyph glyph-name="uniE833" unicode="&#xe833;" horiz-adv-x="950" 
d="M390 376v-372l-390 54v318h390v0zM390 800v-375h-390v322zM951 376v-449l-519 72v377h519v0zM951 878v-453h-519v381z" />
    <glyph glyph-name="uniE834" unicode="&#xe834;" horiz-adv-x="1019" 
d="M514 951q-75 0 -146.5 -21.5t-134 -61.5t-112.5 -97t-83 -127h244v-27q-56 7 -61 -17t3 -55l160 -400l118 275l-55 129q-14 27 -27 49.5t-73 20.5l1 25l358 -1v-28q-32 -2 -59 -6.5t-7 -69.5l144 -379l79 222q20 69 7.5 136.5t-35.5 133.5q-13 44 -1.5 78t68.5 49
q-44 45 -91 77.5t-96.5 53.5t-100 31t-100.5 10v0zM1000 601l-232 -605q48 42 99 78.5t111 151.5q20 47 29.5 93.5t11 92.5t-3.5 93t-15 96v0zM13 590q-17 -133 -11.5 -199.5t47.5 -175.5q55 -105 102 -144t108 -80l-246 599v0zM523 364l-172 -414q46 -13 88.5 -18.5
t83.5 -4.5t80 9t76 23l-156 405v0z" />
    <glyph glyph-name="uniE835" unicode="&#xe835;" horiz-adv-x="1408" 
d="M0 737l6 -20q4 -6 8 -10l5 -5l3 -2l19 -10h114l294 -353q11 -12 11 -25v-197q0 -8 -2 -12t-6 -5h-3q-115 0 -146 -3q-10 0 -10 -9v-57h528v59q0 3 -2 5t-5 2h-149q-10 0 -10 15v207q-1 3 2 7t6 7l3 3q11 12 270 255h136q9 0 19 8l17 19q6 7 6 18v15q-1 3 -3 5t-3 1h-449
l-7 -6q-1 -6 2 -13l5 -10l3 -4l23 -23l18 -8h118l-212 -199l-233 298h42q13 -1 22 4l70 21q1 0 3 1t5 5q3 5 2 10v14q0 3 -2 5t-4 2h-504q-8 -1 -10 -7v-8v0zM1219 848l189 -7l-85 -580l-62 3zM1232 67l4 113l113 -4l-4 -113z" />
    <glyph glyph-name="uniE836" unicode="&#xe836;" 
d="M731 439q0 21 -16 31l-293 183q-18 11 -37 1t-19 -32v-366q0 -22 19 -32q9 -4 17 -4q12 0 20 5l293 183q16 9 16 31v0zM1024 439q0 -55 -1 -86t-4 -78t-13 -84q-10 -42 -39 -71q-30 -28 -72 -32q-126 -15 -383 -15t-383 15q-41 4 -72 32q-30 29 -40 71q-7 37 -12 84
t-4 78t-1 86t1 86t4 78t13 84q10 42 39 70q30 29 72 33q126 14 383 14t383 -14q41 -4 72 -33q30 -28 40 -70q8 -37 12 -84t4 -78t1 -86v0z" />
    <glyph glyph-name="uniE837" unicode="&#xe837;" horiz-adv-x="1249" 
d="M0 750q10 8 26 12q14 5 25 5h9q11 0 25 -1q23 -2 33 -2q6 0 39 3q16 1 29 1q14 0 24 -1q20 -3 33 -9q6 -3 13 -13t12 -19q5 -10 12 -26q6 -16 10 -23q39 -84 96 -166q2 -4 7 -12t9 -12q5 -4 10 -12t10 -12q5 -3 11 -8t11 -6q6 -1 13 0q28 5 31 120q1 19 1 36
q0 76 -15 104q-6 11 -15 19q-9 7 -26 12q-16 5 -23 10q14 29 51 38t98 9h54v0h27q27 0 28 -3l22 -6v0l21 -9q20 -9 12 -15q9 -18 11 -43q0 -7 1 -14q0 -20 -3 -53q-4 -43 -4 -53q-3 -24 -3 -47q0 -19 2 -39q4 -45 31 -63q9 1 17 4t16 12q7 8 11 12t13 16t10 15q48 63 97 166
l9 24v0l12 27q12 26 12 20t16 13q16 8 39 8h9q20 0 47 -2q33 -3 48 -3q9 0 29 2q19 1 33 2q13 1 30 -1q18 -3 26 -7t14 -13q3 -6 3 -13q0 -30 -36 -89q-17 -30 -34 -54q-18 -23 -47 -59q-30 -36 -38 -48q-2 -2 -15 -19q-12 -16 -17 -24t-12 -23q-8 -14 -6 -27q0 -8 4 -16
q3 -7 10 -15t10 -12t13 -14q11 -9 13 -11q72 -66 114 -120q41 -53 41 -76q0 -34 -52 -42q-27 -5 -54 -5q-22 0 -44 4q-21 2 -38 2q-27 0 -46 -6h-6q-68 12 -143 97q-4 4 -17 21q-13 18 -23 26q-9 8 -23 17q-15 9 -28 6q-23 -4 -31 -29q-7 -26 -9 -61t-10 -50
q-13 -24 -81 -24q-29 0 -67 4q-80 8 -145 41q-64 32 -103 69t-83 94q-107 137 -202 330q-3 6 -11 24q-8 17 -13 25q-4 8 -9 25q-5 16 -8 29q-3 12 -3 26v0z" />
    <glyph glyph-name="uniE838" unicode="&#xe838;" 
d="M0 439q0 139 69 257q68 118 186 186q118 69 257 69t257 -69q118 -68 186 -186q69 -118 69 -257t-69 -257q-68 -118 -186 -187q-118 -68 -257 -68t-257 68q-118 69 -186 187q-69 118 -69 257v0zM132 439q0 -67 37 -79q5 -2 17 -4q43 -1 87 41q42 37 60 92q25 79 10 205
q-2 12 -2 17q-3 6 0 9q1 4 13 -1q39 -10 80 -29q47 -22 105 -72q46 -40 89 -91q34 -40 82 -107q42 -58 90 -78q29 -11 49 -8q19 3 30 21q10 17 15 38q5 20 4 46q0 49 -12 98q-3 12 -8 29q-15 44 -42 86q-54 81 -139 127t-182 46q-68 0 -128 -23q-82 -28 -143 -91
q-62 -62 -91 -145q-1 -5 -5 -15q-3 -9 -5 -14q-12 -51 -11 -98v0z" />
    <glyph glyph-name="uniE839" unicode="&#xe839;" horiz-adv-x="950" 
d="M649 377l175 169l-240 36l-109 218l-107 -218l-242 -36l175 -169l-42 -240l216 113l216 -113zM951 581q0 -12 -15 -27l-208 -202l49 -286q1 -4 1 -12q0 -29 -23 -29q-11 0 -23 7l-257 135l-256 -135q-13 -7 -23 -7q-12 0 -18 9q-6 10 -6 20q0 4 1 12l49 286l-208 202
q-14 15 -14 27q0 22 32 27l286 41l129 260q12 23 28 23q17 0 29 -23l128 -260l287 -41q32 -5 32 -27v0z" />
    <glyph glyph-name="uniE83A" unicode="&#xe83a;" horiz-adv-x="950" 
d="M678 404l146 142l-202 30l-38 6l-18 35l-91 183v-550l34 -17l182 -96l-35 203l-7 37zM936 554l-207 -202l48 -286q3 -19 -3 -30q-6 -10 -19 -11q-10 0 -23 7l-257 135l-256 -135q-13 -7 -23 -7q-13 0 -20 11q-7 12 -3 30l49 286l-208 202q-18 18 -13 33q5 16 31 21
l286 41l129 260q12 23 28 23q17 0 29 -23l128 -260l287 -41q25 -4 30 -21q5 -16 -13 -33v0z" />
    <glyph glyph-name="uniE83B" unicode="&#xe83b;" horiz-adv-x="1331" 
d="M0 838q0 42 42 77.5t84 35.5h785q42 0 77.5 -36.5t35.5 -78.5v-387q0 -41 -27 -77t-68 -36h-417l-307 -204v169q0 20 -12 27.5t-32 7.5h-57q-41 0 -72.5 36t-31.5 77v389v0zM1126 848v-501q0 -42 -26.5 -77.5t-68.5 -35.5h-309l302 -307v205h213q41 0 67.5 35.5
t26.5 75.5v519q0 41 -26.5 63.5t-67.5 22.5h-111v0z" />
    <glyph glyph-name="uniE83C" unicode="&#xe83c;" horiz-adv-x="702" 
d="M0 173q0 36 27 63l199 200l-199 200q-27 26 -27 63t27 62q26 26 62 26t63 -26l200 -200l200 200q26 26 62 26q37 0 63 -26q25 -25 25 -62t-25 -63l-200 -200l200 -200q25 -27 25 -63q0 -37 -25 -63q-26 -25 -63 -25q-36 0 -62 25l-200 200l-200 -200q-26 -25 -63 -25
t-62 25q-27 27 -27 63v0z" />
    <glyph glyph-name="uniE83D" unicode="&#xe83d;" horiz-adv-x="887" 
d="M65 664l378 -364l381 364q23 27 49 0q27 -22 0 -49l-405 -401q-23 -23 -49 0l-406 401q-26 27 0 49q25 25 52 0v0z" />
    <glyph glyph-name="uniE83E" unicode="&#xe83e;" horiz-adv-x="878" 
d="M878 183v-73q0 -15 -11 -25q-10 -11 -26 -12h-804q-15 0 -26 12q-10 11 -11 25v73q0 15 11 25q12 11 26 12h804q15 0 26 -12q12 -11 11 -25v0zM878 476v-74q0 -14 -11 -26q-10 -11 -26 -10h-804q-15 0 -26 10q-10 11 -11 26v74q0 14 11 25q12 12 26 11h804q15 0 26 -11
q12 -10 11 -25v0zM878 768v-73q0 -16 -11 -26q-10 -10 -26 -11h-804q-15 0 -26 11q-10 12 -11 26v73q0 15 11 26q12 11 26 10h804q15 0 26 -10q12 -10 11 -26v0z" />
    <glyph glyph-name="uniE900" unicode="&#xe900;" 
d="M59 -53q4 0 7 1t6 4l440 440l440 -440q3 -2 6 -3.5t7 -1.5q3 0 6.5 1.5t5.5 3.5l22 22q2 2 3.5 5.5t1.5 6.5q0 4 -1.5 7t-3.5 6l-440 440l440 440q3 2 4 5.5t1 6.5q0 4 -1 7t-4 6l-22 22q-2 2 -5.5 3.5t-6.5 1.5q-4 0 -7 -1.5t-6 -3.5l-440 -441l-440 441q-3 2 -6 3.5
t-7 1.5q-3 0 -6.5 -1.5t-5.5 -3.5l-22 -22q-2 -2 -3.5 -5.5t-1.5 -6.5q0 -4 1.5 -7t3.5 -6l440 -440l-440 -440q-2 -3 -3.5 -6t-1.5 -7q0 -3 1.5 -6.5t3.5 -5.5l22 -22q2 -3 5.5 -4t6.5 -1v0z" />
    <glyph glyph-name="uniF232" unicode="&#xf232;" horiz-adv-x="878" 
d="M563 394q7 0 56 -25q48 -25 51 -30q1 -3 1 -9q0 -19 -10 -43q-9 -22 -40 -38q-32 -15 -59 -15q-32 0 -108 36q-56 25 -97 67q-42 42 -85 106q-41 61 -41 111v4q2 52 43 91q13 12 29 12q4 0 11 -1t11 -1q10 0 15 -3q4 -4 9 -16q4 -11 18 -50q15 -39 15 -43q0 -12 -20 -33
t-20 -27q0 -4 3 -8q20 -42 58 -78q32 -31 87 -58q7 -4 12 -4q9 0 31 28q22 27 30 27v0zM447 91q72 0 139 29t115 77t76 114q29 67 29 139q0 73 -29 139q-28 67 -76 115t-115 77q-67 28 -139 28q-73 0 -139 -28q-67 -29 -115 -77t-76 -115q-29 -66 -29 -139q0 -116 69 -210
l-46 -133l139 44q90 -60 197 -60v0zM447 881q87 0 167 -34t137 -92q58 -58 92 -138q35 -79 35 -167q0 -87 -35 -167q-34 -80 -92 -137q-57 -58 -137 -92q-80 -35 -167 -35q-112 0 -209 54l-238 -76l78 231q-62 102 -62 222q0 88 34 167q35 80 92 138q58 58 138 92
q79 34 167 34v0z" />
    <glyph glyph-name="uniF27A" unicode="&#xf27a;" 
d="M366 439q0 30 -22 52q-21 21 -51 21q-31 0 -52 -21q-22 -22 -22 -52t22 -52q21 -21 52 -21q30 0 51 21q22 22 22 52v0zM585 439q0 30 -21 52q-22 21 -52 21t-52 -21q-21 -22 -21 -52t21 -52q22 -21 52 -21t52 21q21 22 21 52v0zM805 439q0 30 -22 52q-21 21 -52 21
q-30 0 -51 -21q-22 -22 -22 -52t22 -52q21 -21 51 -21q31 0 52 21q22 22 22 52v0zM1024 439q0 -100 -69 -184q-68 -84 -186 -133t-257 -49q-63 0 -121 10q-98 -98 -248 -130q-30 -6 -49 -8q-7 0 -13 4t-7 10q-3 8 11 21q3 3 14 12l14 14l14 14q9 11 13 18q5 8 12 21
q7 14 11 28t9 33q4 19 7 41q-84 52 -131 124q-48 72 -48 154q0 99 69 184q68 84 186 133t257 49t257 -49t186 -133q69 -85 69 -184v0z" />
    <glyph glyph-name="uniE84A" unicode="&#xe84a;" horiz-adv-x="1244" 
d="M1243.92 899.592q-23.6348 -12.8926 -41.9219 -25.6943q-48.4072 -38.375 -104.144 -92.0293q-55.7363 -53.6533 -94.7236 -93.3828q-38.9902 -39.7275 -84.04 -80.1514q-45.0488 -40.4238 -82.707 -59.1064q-37.6582 -18.6807 -79.4023 -23.0234
q-41.7412 -4.34277 -85.4512 20.8721q-43.709 25.2158 -90.2344 79.3525q-3.37891 3.37988 -10.8154 10.1406q-7.4375 6.76074 -10.8193 10.1426q-58.4561 -89.5088 -67.6152 -217.717q84.2715 -5.07715 142.207 -66.8193q57.9336 -61.7402 57.9336 -146.843
q0 -89.2764 -62.0508 -152.145q-62.0488 -62.8691 -150.26 -62.8691q-88.2393 0 -150.95 62.7119q-62.7119 62.7119 -62.7119 150.95q0 85.1016 57.9336 146.844q57.9336 61.7402 142.203 66.8174q3.93164 58.9414 22.9902 120.353q-3.94727 35.5293 -16.2266 70.3193
q-68.2275 -37.2441 -116.914 -51.1338q-48.6895 -13.8896 -77.7627 -10.0283q-29.0723 3.8623 -54.8887 26.4941q-25.8145 22.6328 -42.2246 48.5332q-16.4111 25.9014 -46.249 66.6504q-29.8369 40.7471 -60.8867 70.9414q-36.7617 26.96 -71.6719 41.9209
q175.96 62.4717 286.585 45.2773q110.627 -17.1973 158.869 -79.7363q48.2432 -62.5391 30.5527 -146.748q10.2363 -23.8877 17.5791 -58.1475q21.5625 56.0586 54.0918 100.068q-4.49902 22.709 -4.69434 46.4404q-0.197266 23.7305 4.14844 50.7686
q4.34375 27.04 16.5898 51.6504q12.2441 24.6123 30.7627 48.7021q18.5166 24.085 48.6553 42.3262q30.1367 18.2402 68.2783 32.124q38.1436 13.8828 91.626 18.498t116.702 1.04004q63.2197 -3.5752 145.5 -19.8408q82.2822 -16.2637 176.157 -44.5234zM619.158 215.333
q0 58.0449 -41.0225 99.3408q-41.0234 41.2979 -99.6143 41.2979q-58.0459 0 -99.3418 -41.0244q-41.2959 -41.0234 -41.2959 -99.6143q0 -58.0439 41.0234 -99.3398q41.0225 -41.2979 99.6143 -41.2979q58.0439 0 99.3389 41.0225q41.2979 41.0234 41.2979 99.6152z" />
    <glyph glyph-name="uniE84B" unicode="&#xe84b;" horiz-adv-x="538" 
d="M267.856 445.976q-98.3037 0 -167.937 69.6318q-69.6318 69.6328 -69.6318 167.937q0 98.3037 69.6318 167.937q69.6328 69.6318 167.937 69.6318q98.3037 0 167.936 -69.6318q69.6318 -69.6328 69.6318 -167.937q0 -98.3037 -69.6318 -167.937
q-69.6318 -69.6318 -167.936 -69.6318zM267.856 781.848q-40.7041 0 -69.5049 -28.7998q-28.7998 -28.7998 -28.7998 -69.5039q0 -40.7041 28.7998 -69.5039q28.8008 -28.7998 69.5049 -28.7998q40.7041 0 69.5039 28.7998q28.7998 28.7998 28.7998 69.5039
q0 40.7041 -28.7998 69.5039q-28.7998 28.7998 -69.5039 28.7998zM364.112 251.416l132.096 -133.12q20.7363 -19.9678 20.7363 -48.7686q0 -28.7998 -20.7363 -49.5352q-19.9678 -20.7363 -48.7686 -20.7363q-28.7998 0 -49.5352 20.7363l-131.072 131.072
l-131.072 -131.072q-20.4785 -20.4805 -49.1514 -20.4805q-28.6738 0 -49.1523 20.4805q-20.7363 19.9678 -20.7363 48.7676q0 28.8008 20.7363 49.5361l133.12 133.12q-73.332 17.1621 -138.24 57.3438q-23.9365 15.4434 -30.3359 43.5205
q-6.40039 28.0771 8.83203 52.7354q15.4424 23.9365 43.5195 30.3359q28.0781 6.40039 52.7363 -8.83203q72.96 -46.0801 160.256 -46.0801q87.2969 0 160.256 46.0801q24.5273 15.4385 52.7363 9.2168q28.209 -6.22266 43.5205 -30.7207q15.4385 -24.5264 9.21582 -52.7354
q-6.22266 -28.209 -30.7207 -43.5205q-61.1299 -39.2979 -138.239 -57.3438z" />
    <glyph glyph-name="uniE84C" unicode="&#xe84c;" 
d="M222.208 605.016q0 38.5986 27.293 65.8916t65.8906 27.293q38.5986 0 65.8916 -27.293t27.293 -65.8916q0 -38.5977 -27.293 -65.8906t-65.8916 -27.293q-38.5977 0 -65.8906 27.293t-27.293 65.8906zM615.424 605.016q0 38.5986 27.293 65.8916t65.8916 27.293
q38.5977 0 65.8906 -27.293t27.293 -65.8916q0 -38.5977 -27.293 -65.8906t-65.8906 -27.293q-38.5986 0 -65.8916 27.293t-27.293 65.8906zM1016.83 125.784q11.5029 -19.9775 5.50391 -42.1123q-5.99902 -22.1338 -25.9844 -33.6641q-11.4678 -7.16797 -27.6475 -7.16797
q-31.8643 0 -48.1279 27.6484l-44.0322 74.752q-74.0117 -68.6152 -168.016 -105.476q-94.0029 -36.8604 -196.528 -36.8604t-196.528 36.8604q-94.0039 36.8604 -168.016 105.476l-44.0322 -74.752q-16.2637 -27.6484 -48.1279 -27.6484q-14.7461 0 -27.6475 7.16797
q-19.9854 11.5303 -25.9844 33.6641q-5.99902 22.1348 5.50391 42.1123l115.712 196.607q11.5303 19.9854 33.6641 25.9844q22.1348 5.99902 42.1123 -5.50391q19.9854 -11.5303 25.9844 -33.6641q5.99805 -22.1348 -5.50488 -42.1123l-14.3359 -23.5518
q60.8936 -62.4346 140.427 -96.2412t166.773 -33.8066q87.4668 0 166.84 34.0166q79.373 34.0176 139.336 97.0557l-13.3115 23.5518q-11.5029 19.9775 -5.50488 42.1123q5.99902 22.1338 25.9844 33.6641q19.9775 11.5029 42.1123 5.50391
q22.1338 -5.99902 33.6641 -25.9844z" />
    <glyph glyph-name="uniE83F" unicode="&#xe83f;" 
d="M726 811q34 0 59 -26t25 -60v-682l-298 128l-298 -128v682q0 34 24.5 60t59.5 26h428z" />
    <glyph glyph-name="uniE849" unicode="&#xe849;" 
d="M878.78 235.42q17.3831 -18.6577 17.2197 -43.4199q-0.156197 -25.5912 -18.3035 -44.7956q-18.1473 -19.2044 -45.8967 -19.2044h-767.6q-27.7461 0 -45.8874 19.2022q-18.1413 19.2022 -18.3128 44.7978q-0.163157 24.7328 17.2197 43.4199q2.4 2.57887 7.56417 8.008
q21.378 22.4749 34.011 39.4708q12.633 16.9959 31.5173 52.6898t28.3661 88.2222q9.48182 52.5282 9.48182 120.189q0 115.193 72.155 201.168q72.155 85.9753 183.725 109.152v41.6797q0 26.5053 18.7351 45.2527q18.7351 18.7473 45.2249 18.7473t45.2249 -18.7473
q18.7351 -18.7473 18.7351 -45.2527v-41.6797q111.57 -23.177 183.725 -109.152q72.155 -85.9753 72.155 -201.168q0 -67.6611 9.48182 -120.189q9.48182 -52.5282 28.3661 -88.2222q18.8843 -35.6939 31.5173 -52.6898q12.633 -16.9959 34.011 -39.4708
q5.16416 -5.42913 7.56417 -8.008zM135.06 224h625.881q-88.8 117.004 -89.0605 318.84q0.120117 0.959961 0.120117 1.16016q0 93 -65.5 158.5t-158.5 65.5t-158.5 -65.5t-65.5 -158.5q0 -0.200195 0.0600586 -0.580078q-0.200486 -202.373 -89.0005 -319.42zM448 -64
q-52.9845 0 -90.4625 37.4898t-37.478 90.5102h255.881q0 -53.0204 -37.478 -90.5102t-90.4625 -37.4898z" />
    <glyph glyph-name="uniE848" unicode="&#xe848;" 
d="M448 -64q-52.9845 0 -90.4625 37.4898t-37.478 90.5102h255.881q0 -53.0204 -37.478 -90.5102t-90.4625 -37.4898zM878.78 235.42q17.3831 -18.6577 17.2197 -43.4199q-0.156197 -25.5912 -18.3035 -44.7956q-18.1473 -19.2044 -45.8967 -19.2044h-767.6
q-27.7461 0 -45.8874 19.2022q-18.1413 19.2022 -18.3128 44.7978q-0.163157 24.7328 17.2197 43.4199q2.4 2.57887 7.56417 8.008q21.378 22.4749 34.011 39.4708q12.633 16.9959 31.5173 52.6898t28.3661 88.2222q9.48182 52.5282 9.48182 120.189
q0 115.193 72.155 201.168q72.155 85.9753 183.725 109.152v41.6797q0 26.5053 18.7351 45.2527q18.7351 18.7473 45.2249 18.7473t45.2249 -18.7473q18.7351 -18.7473 18.7351 -45.2527v-41.6797q111.57 -23.177 183.725 -109.152q72.155 -85.9753 72.155 -201.168
q0 -67.6611 9.48182 -120.189q9.48182 -52.5282 28.3661 -88.2222q18.8843 -35.6939 31.5173 -52.6898q12.633 -16.9959 34.011 -39.4708q5.16416 -5.42913 7.56417 -8.008z" />
    <glyph glyph-name="uniE847" unicode="&#xe847;" 
d="M872 0q10 0 17 -7t7 -17v-40h-896v40q0 10 7 17t17 7h40v912q0 20 14 34t34 14h672q20 0 34 -14t14 -34v-912h40zM256 808v-80q0 -10 7 -17t17 -7h80q10 0 17 7t7 17v80q0 10 -7 17t-17 7h-80q-10 0 -17 -7t-7 -17zM256 616v-80q0 -10 7 -17t17 -7h80q10 0 17 7t7 17v80
q0 10 -7 17t-17 7h-80q-10 0 -17 -7t-7 -17zM360 320q10 0 17 7t7 17v80q0 10 -7 17t-17 7h-80q-10 0 -17 -7t-7 -17v-80q0 -10 7 -17t17 -7h80zM512 0v168q0 10 -7 17t-17 7h-80q-10 0 -17 -7t-7 -17v-168h128zM640 344v80q0 10 -7 17t-17 7h-80q-10 0 -17 -7t-7 -17v-80
q0 -10 7 -17t17 -7h80q10 0 17 7t7 17zM640 536v80q0 10 -7 17t-17 7h-80q-10 0 -17 -7t-7 -17v-80q0 -10 7 -17t17 -7h80q10 0 17 7t7 17zM640 728v80q0 10 -7 17t-17 7h-80q-10 0 -17 -7t-7 -17v-80q0 -10 7 -17t17 -7h80q10 0 17 7t7 17z" />
    <glyph glyph-name="uniE846" unicode="&#xe846;" 
d="M288 544q27 0 45.5 -18.5t18.5 -45.5t-18.5 -45.5t-45.5 -18.5t-45.5 18.5t-18.5 45.5t18.5 45.5t45.5 18.5zM512 544q27 0 45.5 -18.5t18.5 -45.5t-18.5 -45.5t-45.5 -18.5t-45.5 18.5t-18.5 45.5t18.5 45.5t45.5 18.5zM736 544q27 0 45.5 -18.5t18.5 -45.5t-18.5 -45.5
t-45.5 -18.5t-45.5 18.5t-18.5 45.5t18.5 45.5t45.5 18.5zM512 896q212 0 362 -122t150 -294t-150 -294t-362 -122q-94.9689 0 -185.8 28.5996q-130.811 -92.5996 -278.2 -92.5996q-31.6762 0 -44.2002 29q-12.5109 28.9734 9.2002 52q3.09177 2.47281 17.6892 19.9872
q14.5974 17.5144 38.2216 54.4253q23.6242 36.911 36.8891 71.9878q-105.8 112.531 -105.8 252.6q0 172 150 294t362 122zM512 160q172 0 294 94t122 226t-122 226t-294 94t-294 -94t-122 -226q0 -101.922 79.5996 -186.8l41.2002 -43.6006l-21.2002 -56.1992
q-14.7443 -38.8714 -39.7998 -80.4004q60.4405 19.4641 115 58l39 27.5996l45.4004 -14.3994q76.5325 -24.2002 156.8 -24.2002z" />
    <glyph glyph-name="uniE845" unicode="&#xe845;" 
d="M512 896q212 0 362 -122t150 -294t-150 -294t-362 -122q-111.648 0 -214.8 38.7998q-129.024 -102.8 -281.2 -102.8q-4.82304 0 -8.74097 2.56017q-3.91792 2.56017 -5.85864 7.03944q-4.25498 9.81696 3 17.4004q7.35586 7.35586 24.0189 27.6815
q16.6631 20.3256 45.5617 69.7034q28.8986 49.3778 40.0189 94.2147q-114 114.321 -114 261.4q0 172 150 294t362 122zM256 416q27 0 45.5 18.5t18.5 45.5t-18.5 45.5t-45.5 18.5t-45.5 -18.5t-18.5 -45.5t18.5 -45.5t45.5 -18.5zM512 416q27 0 45.5 18.5t18.5 45.5
t-18.5 45.5t-45.5 18.5t-45.5 -18.5t-18.5 -45.5t18.5 -45.5t45.5 -18.5zM768 416q27 0 45.5 18.5t18.5 45.5t-18.5 45.5t-45.5 18.5t-45.5 -18.5t-18.5 -45.5t18.5 -45.5t45.5 -18.5z" />
    <glyph glyph-name="uniE844" unicode="&#xe844;" 
d="M864 128q13 0 22.5 -9.5t9.5 -22.5v-64q0 -13 -9.5 -22.5t-22.5 -9.5h-256q-13 0 -22.5 9.5t-9.5 22.5v64q0 13 9.5 22.5t22.5 9.5h39.1602l-46.6006 128h-305.119l-46.6006 -128h39.1602q13 0 22.5 -9.5t9.5 -22.5v-64q0 -13 -9.5 -22.5t-22.5 -9.5h-256
q-13 0 -22.5 9.5t-9.5 22.5v64q0 13 9.5 22.5t22.5 9.5h46.8203l261.42 724.62q6.11211 17.9591 23.864 30.6695t36.7229 12.7104h94.333q18.9837 0 36.7356 -12.7104t23.864 -30.6695l261.42 -724.62h46.8203zM353.7 416h188.6l-94.2998 258.98z" />
    <glyph glyph-name="uniE843" unicode="&#xe843;" 
d="M272.618 580.328l352.008 303.97q23.1108 20.054 51.2424 7.31506t28.1316 -43.6432v-165.525q81.457 -6.45123 146.237 -20.6913q64.7799 -14.2401 122.639 -41.8443t96.2696 -67.6342q38.41 -40.03 60.632 -99.9747q22.222 -59.9448 22.222 -136.952
q0 -87.9773 -48.4724 -172.764q-48.4724 -84.7865 -118.194 -135.5q-20.5135 -15.0064 -42.092 -0.890747t-14.0623 38.1525q22.9867 73.5114 26.809 130.061q3.82233 56.5493 -9.991 97.2514q-13.8133 40.7021 -46.8762 68.7116t-80.6375 44.1495t-114.484 23.857v-168.35
q0 -30.9371 -28.1466 -43.6567t-51.2274 7.32861l-352.008 303.974q-16.6119 14.3458 -16.6179 36.3175t16.6179 36.3387zM16.6182 507.672q-16.6119 14.3458 -16.6179 36.3175t16.6179 36.3387l352.008 303.97q23.1108 20.054 51.2424 7.31506t28.1316 -43.6432v-31.6338
l-217.214 -187.572q-16.0575 -13.8595 -27.4218 -38.6808q-11.3643 -24.8213 -11.3643 -46.0331v-0.09375q0 -21.2139 11.3649 -46.0372q11.3649 -24.8234 27.4232 -38.6844l217.212 -187.57v-31.6357q0 -30.9371 -28.1466 -43.6567t-51.2274 7.32861z" />
    <glyph glyph-name="uniE842" unicode="&#xe842;" 
d="M16.6182 580.328l352.008 303.97q23.1094 20.0544 51.2417 7.3158t28.1323 -43.6439v-160.105q72.8281 -0.833952 133.37 -5.74063t121.005 -16.5385q60.4626 -11.6319 107.512 -29.9445t88.2521 -47.093q41.2024 -28.7804 68.1746 -66.7739
q26.9721 -37.9935 42.3292 -90.1973t15.3571 -116.229q0 -87.9779 -48.472 -172.764q-48.472 -84.7865 -118.194 -135.499q-20.5135 -15.0064 -42.092 -0.890747t-14.0623 38.1525q22.5581 72.1416 27.1489 127.87q4.59074 55.728 -9.7642 96.3896
q-14.3549 40.6616 -43.3721 68.5275q-29.0172 27.8659 -77.9046 44.8935q-48.8874 17.0275 -108.85 24.8368q-59.9625 7.80921 -140.438 8.9674v-175.83q0 -30.936 -28.1466 -43.656t-51.2274 7.32788l-352.008 304q-16.6119 14.3473 -16.6179 36.3182t16.6179 36.338z" />
    <glyph glyph-name="uniE841" unicode="&#xe841;" 
d="M832 64h-168q-10 0 -17 7t-7 17v80q0 10 7 17t17 7h168q27 0 45.5 18.5t18.5 45.5v384q0 27 -18.5 45.5t-45.5 18.5h-168q-10 0 -17 7t-7 17v80q0 10 7 17t17 7h168q80 0 136 -56t56 -136v-384q0 -80 -56 -136t-136 -56zM738 466q14 -14 14 -34t-14 -34l-336 -336
q-22 -23 -52 -10.5t-30 44.5v192h-272q-20 0 -34 14t-14 34v192q0 20 14 34t34 14h272v192q0 32 30 44.5t52 -10.5z" />
    <glyph glyph-name="uniE840" unicode="&#xe840;" 
d="M994 414l-336 -336q-22 -23 -52 -10.5t-30 44.5v192h-272q-20 0 -34 14t-14 34v192q0 20 14 34t34 14h272v192q0 32 29.5 44.5t52.5 -10.5l336 -336q14 -14 14 -34t-14 -34zM384 88q0 -10 -7 -17t-17 -7h-168q-80 0 -136 56t-56 136v384q0 80 56 136t136 56h168
q10 0 17 -7t7 -17v-80q0 -10 -7 -17t-17 -7h-168q-27 0 -45.5 -18.5t-18.5 -45.5v-384q0 -27 18.5 -45.5t45.5 -18.5h168q10 0 17 -7t7 -17v-80z" />
    <glyph glyph-name="uniE850" unicode="&#xe850;" 
d="M384 448q-93 0 -158.5 65.5t-65.5 158.5t65.5 158.5t158.5 65.5t158.5 -65.5t65.5 -158.5t-65.5 -158.5t-158.5 -65.5zM537.6 384q95.4001 0 162.9 -67.5001t67.5001 -162.9v-57.5996q0 -40 -28 -68t-68 -28h-576q-40 0 -68 28t-28 68v57.5996q0 95.4001 67.5001 162.9
t162.9 67.5001h16.5996q67 -32 137 -32t137 32h16.5996zM960 448q-80 0 -136 56t-56 136t56 136t136 56t136 -56t56 -136t-56 -136t-136 -56zM1056 384q93 0 158.5 -65.5t65.5 -158.5q0 -40 -28 -68t-68 -28h-353.2q0.0836304 1.75461 0.641913 6.06822
q0.558282 4.31362 0.558282 6.73158v76.7998q0 114.018 -79.4004 199.601q53.4944 30.7998 111.4 30.7998h7.59961q46.3365 -16 88.4004 -16t88.4004 16h7.59961z" />
    <glyph glyph-name="uniE851" unicode="&#xe851;" 
d="M627.2 352q111.3 0 190.05 -78.7501t78.7501 -190.05v-51.2002q0 -40 -28 -68t-68 -28h-704q-40 0 -68 28t-28 68v51.2002q0 111.3 78.7501 190.05t190.05 78.7501q24.2253 0 75.8752 -16t103.325 -16q51.7001 0 103.4 16t75.8002 16zM800 32v51.2002
q0 71.4001 -50.6998 122.1t-122.1 50.6998q-10.1946 0 -33.9668 -8t-61.9333 -16q-38.1611 -8 -83.3001 -8q-44.7887 0 -82.9957 8q-38.207 8 -62.1418 16q-23.9348 8 -34.0627 8q-71.4001 0 -122.1 -50.6998t-50.6998 -122.1v-51.2002h704zM448 384q-119 0 -203.5 84.5
t-84.5 203.5t84.5 203.5t203.5 84.5t203.5 -84.5t84.5 -203.5t-84.5 -203.5t-203.5 -84.5zM448 864q-79 0 -135.5 -56.5t-56.5 -135.5t56.5 -135.5t135.5 -56.5t135.5 56.5t56.5 135.5t-56.5 135.5t-135.5 56.5z" />
    <glyph glyph-name="uniE852" unicode="&#xe852;" 
d="M448 448q-106 0 -181 75t-75 181t75 181t181 75t181 -75t75 -181t-75 -181t-181 -75zM627.2 384q111.3 0 190.05 -78.7501t78.7501 -190.05v-83.2002q0 -40 -28 -68t-68 -28h-704q-40 0 -68 28t-28 68v83.2002q0 111.3 78.7501 190.05t190.05 78.7501h33.4004
q69.9588 -32 145.8 -32q76.155 0 145.8 32h33.4004z" />
    <glyph glyph-name="uniE853" unicode="&#xe853;" 
d="M1221 277.4l51.5996 -29.8008q9.97959 -5.84831 6.60059 -17q-20.099 -64.7937 -66.4004 -114.8q-7.97989 -8.67453 -18 -2.7998l-51.5996 29.7998q-32.8754 -28.0493 -73.7998 -42.5996v-59.6006q0 -11.7818 -11.4004 -14.1992q-65.8749 -14.9158 -132.4 0
q-11.3994 2.41719 -11.3994 14.1992v59.6006q-40.9244 14.5503 -73.7998 42.5996l-51.6006 -29.7998q-10.1375 -5.74526 -18 2.7998q-46.4467 50.473 -66.3994 114.8q-3.42936 11.3179 6.59961 17l51.5996 29.8008q-7.85428 42.5996 0 85.1992l-51.5996 29.8008
q-9.9785 5.84866 -6.59961 17q20.0973 64.7929 66.3994 114.8q7.98099 8.67389 18 2.7998l51.6006 -29.7998q32.8754 28.0493 73.7998 42.5996v59.6006q0 11.782 11.3994 14.1992q65.8756 14.916 132.4 0q11.4004 -2.4174 11.4004 -14.1992v-59.6006
q40.9244 -14.5503 73.7998 -42.5996l51.5996 29.7998q10.1386 5.74589 18 -2.7998q46.3014 -50.0061 66.4004 -114.8q3.42922 -11.3174 -6.60059 -17l-51.5996 -29.8008q7.85576 -42.5996 0 -85.1992zM992 223q40 0 68.5 28.5t28.5 68.5t-28.5 68.5t-68.5 28.5t-68.5 -28.5
t-28.5 -68.5t28.5 -68.5t68.5 -28.5zM192 512q-53 0 -90.5 37.5t-37.5 90.5t37.5 90.5t90.5 37.5t90.5 -37.5t37.5 -90.5t-37.5 -90.5t-90.5 -37.5zM640 448q-93 0 -158.5 65.5t-65.5 158.5q0 92.8499 65.475 158.325t158.325 65.475t158.425 -65.5751t65.5751 -158.425
q0 -49.2809 -22.3994 -96q-0.800293 -0.5 -2.40039 -1.3999t-2.40039 -1.3999l-15.7998 9.2002q-17.8676 10.5996 -39.2002 10.5996q-34.4899 0 -57.7998 -25.2002q-46.6064 -50.4406 -72.5996 -118.399q-1.63915 -0.0863595 -5.38555 -0.643277
q-3.7464 -0.556918 -5.81465 -0.556918zM850.4 59v-18.4004q0 -20.4909 12.3994 -40.5996h-510.8q-40 0 -68 28t-28 68v57.5996q0 95.4155 67.5327 162.908q67.5327 67.4924 163.067 67.4924h16.6006q66.8797 -32 137 -32q2.9309 0 6.18928 0.200357t7.22105 0.532555
q3.96267 0.332198 6.18928 0.467284q9.18819 -10.1719 19.6006 -16.2002l15.7998 -9.2002q-0.300274 -7.7998 0 -15.5996q-0.105191 -0.0701463 -0.994424 -0.51155q-3.60196 -1.78797 -6.63517 -3.51218t-10.7756 -6.87886t-12.5507 -10.3828t-11.9603 -14.0239
t-9.00449 -17.8024t-3.68327 -21.718t4.00337 -25.7709q24.0482 -78.2279 80.4004 -139.199q23.6252 -25.2002 57.7998 -25.2002q4.46718 0 8.82472 0.528164q4.35754 0.528164 7.62828 1.1046q3.27073 0.576438 7.4766 2.11725q4.20587 1.54081 6.44227 2.3702
t6.5812 3.1391q4.3448 2.30971 5.83748 3.14829q1.49268 0.838583 6.26703 3.67342q4.77435 2.83484 5.94241 3.51858q10.1955 -6.02319 13.6006 -7.7998zM346.2 410.8q-61.1449 -33.531 -101.098 -90.9976q-39.9533 -57.4666 -49.3022 -127.802h-131.8q-27 0 -45.5 18.5
t-18.5 45.5v64q0 53 37.5 90.5t90.5 37.5h128q52.6762 0 90.2002 -37.2002z" />
    <glyph glyph-name="uniE854" unicode="&#xe854;" 
d="M192 512q-53 0 -90.5 37.5t-37.5 90.5t37.5 90.5t90.5 37.5t90.5 -37.5t37.5 -90.5t-37.5 -90.5t-90.5 -37.5zM1088 512q-53 0 -90.5 37.5t-37.5 90.5t37.5 90.5t90.5 37.5t90.5 -37.5t37.5 -90.5t-37.5 -90.5t-90.5 -37.5zM1152 448q53 0 90.5 -37.5t37.5 -90.5v-64
q0 -27 -18.5 -45.5t-45.5 -18.5h-132q-9.19749 70.3139 -49.1158 127.786q-39.9183 57.4716 -101.084 91.0143q37.524 37.2002 90.2002 37.2002h128zM640 448q-93 0 -158.5 65.5t-65.5 158.5t65.5 158.5t158.5 65.5t158.5 -65.5t65.5 -158.5t-65.5 -158.5t-158.5 -65.5z
M793.6 384q95.4001 0 162.9 -67.5001t67.5001 -162.9v-57.5996q0 -40 -28 -68t-68 -28h-576q-40 0 -68 28t-28 68v57.5996q0 95.4001 67.5001 162.9t162.9 67.5001h16.5996q67 -32 137 -32t137 32h16.5996zM346.2 410.8q-61.1449 -33.531 -101.098 -90.9976
q-39.9533 -57.4666 -49.3022 -127.802h-131.8q-27 0 -45.5 18.5t-18.5 45.5v64q0 53 37.5 90.5t90.5 37.5h128q52.6762 0 90.2002 -37.2002z" />
    <glyph glyph-name="uniE855" unicode="&#xe855;" 
d="M1015.46 741.8q18.0088 -72.4162 -1.56158 -145.594q-19.5703 -73.1777 -74.2587 -127.866q-58.7931 -58.7931 -139.705 -76.6771t-155.034 8.23767l-426.42 -426.42q-37.4854 -37.4854 -90.5004 -37.4854t-90.4996 37.4854q-37.4854 37.4846 -37.4854 90.4996
t37.4854 90.5004l426.779 426.779q-25.8475 74.0526 -8.05481 155.045t76.1554 139.355q54.6358 54.6214 127.718 74.2053q73.082 19.5839 145.441 1.65405q13.6434 -3.39162 17.443 -16.8894t-6.12268 -23.4299l-148.72 -148.72l22.6201 -135.761l135.76 -22.6201
l148.72 148.721q9.86716 9.88204 23.3754 6.19751t16.8649 -17.218zM128 16q20 0 34 14t14 34t-14 34t-34 14t-34 -14t-14 -34t14 -34t34 -14z" />
  </font>
</defs>
</svg>
